{
	"asset":{
		"generator":"Khronos glTF Blender I/O v4.2.69",
		"version":"2.0"
	},
	"scene":0,
	"scenes":[
		{
			"name":"Scene",
			"nodes":[
				0
			]
		}
	],
	"nodes":[
		{
			"mesh":0,
			"name":"Cube",
			"scale":[
				1.3245011568069458,
				0.1212637796998024,
				4.745719909667969
			]
		}
	],
	"materials":[
		{
			"doubleSided":true,
			"name":"Table-color",
			"normalTexture":{
				"index":0
			},
			"pbrMetallicRoughness":{
				"baseColorTexture":{
					"index":1
				},
				"metallicRoughnessTexture":{
					"index":2
				}
			}
		}
	],
	"meshes":[
		{
			"name":"Cube.001",
			"primitives":[
				{
					"attributes":{
						"POSITION":0,
						"NORMAL":1,
						"TEXCOORD_0":2
					},
					"indices":3,
					"material":0
				}
			]
		}
	],
	"textures":[
		{
			"sampler":0,
			"source":0
		},
		{
			"sampler":0,
			"source":1
		},
		{
			"sampler":0,
			"source":2
		}
	],
	"images":[
		{
			"mimeType":"image/png",
			"name":"wood9_normal",
			"uri":"wood9_normal.png"
		},
		{
			"mimeType":"image/png",
			"name":"wood9_baseColor",
			"uri":"wood9_baseColor.png"
		},
		{
			"mimeType":"image/png",
			"name":"wood9_metallic-wood9_roughness",
			"uri":"wood9_metallic-wood9_roughness.png"
		}
	],
	"accessors":[
		{
			"bufferView":0,
			"componentType":5126,
			"count":1015,
			"max":[
				1.0000001192092896,
				1.0000001192092896,
				1.0000001192092896
			],
			"min":[
				-1.0000001192092896,
				-1.0000001192092896,
				-1.0000001192092896
			],
			"type":"VEC3"
		},
		{
			"bufferView":1,
			"componentType":5126,
			"count":1015,
			"type":"VEC3"
		},
		{
			"bufferView":2,
			"componentType":5126,
			"count":1015,
			"type":"VEC2"
		},
		{
			"bufferView":3,
			"componentType":5123,
			"count":5184,
			"type":"SCALAR"
		}
	],
	"bufferViews":[
		{
			"buffer":0,
			"byteLength":12180,
			"byteOffset":0,
			"target":34962
		},
		{
			"buffer":0,
			"byteLength":12180,
			"byteOffset":12180,
			"target":34962
		},
		{
			"buffer":0,
			"byteLength":8120,
			"byteOffset":24360,
			"target":34962
		},
		{
			"buffer":0,
			"byteLength":10368,
			"byteOffset":32480,
			"target":34963
		}
	],
	"samplers":[
		{
			"magFilter":9729,
			"minFilter":9987
		}
	],
	"buffers":[
		{
			"byteLength":42848,
			"uri":"table-asset.bin"
		}
	]
}
